HIERARCHY
ROOT Hips
{
	OFFSET -0.001795 -0.223333 0.028219
	CHANNELS 6 Xposition Yposition Zposition Zrotation Yrotation Xrotation 
	JOINT LeftUpLeg
	{
		OFFSET 0.069520 -0.091406 -0.006815
		CHANNELS 3 Zrotation Yrotation Xrotation
		JOINT LeftLeg
		{
			OFFSET 0.034277 -0.375199 -0.004496
			CHANNELS 3 Zrotation Yrotation Xrotation
			JOINT LeftFoot
			{
				OFFSET -0.013596 -0.397961 -0.043693
				CHANNELS 3 Zrotation Yrotation Xrotation
				JOINT LeftToe
				{
					OFFSET 0.026358 -0.055791 0.119288
					CHANNELS 3 Zrotation Yrotation Xrotation
					End Site
					{
						OFFSET 0.000000 0.000000 0.000000
					}
				}
			}
		}
	}
	JOINT RightUpLeg
	{
		OFFSET -0.067670 -0.090522 -0.004320
		CHANNELS 3 Zrotation Yrotation Xrotation
		JOINT RightLeg
		{
			OFFSET -0.038290 -0.382569 -0.008850
			CHANNELS 3 Zrotation Yrotation Xrotation
			JOINT RightFoot
			{
				OFFSET 0.015774 -0.398415 -0.042312
				CHANNELS 3 Zrotation Yrotation Xrotation
				JOINT RightToe
				{
					OFFSET -0.025372 -0.048144 0.123348
					CHANNELS 3 Zrotation Yrotation Xrotation
					End Site
					{
						OFFSET 0.000000 0.000000 0.000000
					}
				}
			}
		}
	}
	JOINT Spine
	{
		OFFSET -0.002533 0.108963 -0.026696
		CHANNELS 3 Zrotation Yrotation Xrotation
		JOINT Spine1
		{
			OFFSET 0.005487 0.135180 0.001092
			CHANNELS 3 Zrotation Yrotation Xrotation
			JOINT Spine2
			{
				OFFSET 0.001457 0.052922 0.025425
				CHANNELS 3 Zrotation Yrotation Xrotation
				JOINT Neck
				{
					OFFSET -0.002778 0.213870 -0.042857
					CHANNELS 3 Zrotation Yrotation Xrotation
					JOINT Head
					{
						OFFSET 0.005152 0.064970 0.051349
						CHANNELS 3 Zrotation Yrotation Xrotation
						End Site
						{
							OFFSET 0.000000 0.000000 0.000000
						}
					}
				}
				JOINT LeftShoulder
				{
					OFFSET 0.078845 0.121749 -0.034090
					CHANNELS 3 Zrotation Yrotation Xrotation
					JOINT LeftArm
					{
						OFFSET 0.090977 0.030469 -0.008868
						CHANNELS 3 Zrotation Yrotation Xrotation
						JOINT LeftForeArm
						{
							OFFSET 0.259612 -0.012772 -0.027456
							CHANNELS 3 Zrotation Yrotation Xrotation
							JOINT LeftHand
							{
								OFFSET 0.249234 0.008986 -0.001171
								CHANNELS 3 Zrotation Yrotation Xrotation
								End Site
								{
									OFFSET 0.000000 0.000000 0.000000
								}
							}
						}
					}
				}
				JOINT RightShoulder
				{
					OFFSET -0.081759 0.118833 -0.038615
					CHANNELS 3 Zrotation Yrotation Xrotation
					JOINT RightArm
					{
						OFFSET -0.096012 0.032551 -0.009143
						CHANNELS 3 Zrotation Yrotation Xrotation
						JOINT RightForeArm
						{
							OFFSET -0.253742 -0.013329 -0.021401
							CHANNELS 3 Zrotation Yrotation Xrotation
							JOINT RightHand
							{
								OFFSET -0.255298 0.007772 -0.005559
								CHANNELS 3 Zrotation Yrotation Xrotation
								End Site
								{
									OFFSET 0.000000 0.000000 0.000000
								}
							}
						}
					}
				}
			}
		}
	}
}
MOTION
Frames: 9
Frame Time: 0.050000
0.000000 0.952613 0.000000 -0.062415 -1.689263 6.395823 3.472742 -0.279587 -3.117454 -1.056339 0.228981 -4.520016 2.438516 8.052060 10.511372 0.000000 0.000000 0.000000 -0.871989 0.309390 -2.972891 -2.939421 0.054988 -3.676916 -2.154422 -8.870304 10.434705 0.000000 0.000000 0.000000 4.788219 0.510738 -7.730635 -3.337137 1.541773 -2.517601 -5.117070 5.184356 -0.988388 11.835481 -6.247013 -11.985808 0.000000 0.000000 0.000000 -4.084947 -16.228728 5.269615 -37.702578 -43.412864 9.145138 -17.281144 -69.580376 13.282796 0.000000 0.000000 0.000000 -6.829340 11.596881 3.704728 7.884506 32.964684 0.187635 -15.762238 34.534500 -2.922433 0.000000 0.000000 0.000000 
-0.000159 0.953436 0.000730 -0.672489 -2.711810 7.414021 3.423232 -0.270570 -2.906687 -0.495672 0.242314 -6.155469 2.846077 8.287605 8.896852 0.000000 0.000000 0.000000 -0.080944 0.423795 -4.276319 -3.794583 0.112148 -3.591857 -1.819999 -8.312000 10.303469 0.000000 0.000000 0.000000 5.757483 0.565387 -7.983726 -4.079261 1.861861 -2.550790 -5.375288 6.886459 -1.750867 13.792081 -7.315954 -12.390930 0.000000 0.000000 0.000000 -4.873266 -15.141094 4.711735 -34.507000 -39.304480 6.982607 -28.413897 -72.737917 21.918230 0.000000 0.000000 0.000000 -6.730448 8.508233 2.740615 10.518679 28.618282 0.515398 -14.356303 37.997430 -2.586927 0.000000 0.000000 0.000000 
0.000115 0.953267 0.001446 -0.464642 -2.597290 6.730871 3.379134 -0.217171 -2.131239 -0.454065 0.220489 -5.556519 2.388325 7.395286 8.435648 0.000000 0.000000 0.000000 -0.374841 0.364993 -3.647373 -3.780552 0.063438 -4.283551 -1.200663 -7.247155 10.802637 0.000000 0.000000 0.000000 6.096133 0.461476 -6.675953 -3.294323 1.488619 -4.343303 -6.511994 7.216165 -0.993817 12.946360 -7.521229 -9.592041 0.000000 0.000000 0.000000 -6.609999 -11.252576 3.057151 -32.300441 -35.057679 5.288283 -33.892467 -71.538157 25.321714 0.000000 0.000000 0.000000 -4.837092 6.377635 2.131694 11.658311 26.035683 0.463022 -17.334210 41.603645 -3.784722 0.000000 0.000000 0.000000 
0.000790 0.953078 0.002636 -0.367332 -0.496419 7.824630 3.640762 -0.300075 -3.130185 -0.515586 0.229181 -5.872582 1.214354 5.453692 8.267167 0.000000 0.000000 0.000000 -0.597960 0.451742 -4.477658 -2.961337 0.025295 -4.201887 -2.274845 -9.018208 10.612963 0.000000 0.000000 0.000000 6.219664 0.508087 -7.596614 -3.081009 1.418553 -3.722441 -7.359069 6.133905 -1.108239 13.574797 -8.046852 -9.177809 0.000000 0.000000 0.000000 -7.981292 -9.515741 2.208549 -29.683776 -31.876209 4.072683 -20.485444 -66.770037 14.158096 0.000000 0.000000 0.000000 -4.126043 1.537304 0.575344 13.080022 22.225244 0.331308 -16.229447 42.893703 -3.373402 0.000000 0.000000 0.000000 
0.001464 0.951486 0.004372 -0.211758 -0.199265 7.873830 3.288001 -0.297822 -3.085148 -0.378370 0.216820 -5.736527 1.137011 5.255714 7.978261 0.000000 0.000000 0.000000 -0.852864 0.463066 -4.582691 -2.777724 0.018308 -4.140845 -1.660774 -7.635855 10.061770 0.000000 0.000000 0.000000 5.799609 0.459589 -7.266710 -2.439547 1.144878 -3.847176 -7.596602 4.948319 -0.659861 12.690344 -7.918198 -7.601809 0.000000 0.000000 0.000000 -9.675059 -7.518368 1.340341 -26.197610 -26.752505 2.470324 -4.246515 -59.818841 3.366291 0.000000 0.000000 0.000000 -2.441046 -0.808153 -0.198931 14.274551 17.397847 -0.002837 -15.467981 45.301002 -3.431536 0.000000 0.000000 0.000000 
0.002336 0.950347 0.006236 -0.286595 -0.210511 7.950361 2.742440 -0.294453 -3.070437 0.336618 0.179344 -5.810191 1.111677 5.251260 8.104952 0.000000 0.000000 0.000000 -1.153908 0.465354 -4.591555 -2.113424 -0.030830 -4.234959 -1.945893 -8.273250 10.352570 0.000000 0.000000 0.000000 5.921055 0.466407 -7.311357 -2.380555 1.119767 -4.186391 -7.388161 4.668657 0.225313 11.789713 -7.295763 -7.716912 0.000000 0.000000 0.000000 -10.126466 -6.115379 0.767988 -23.929373 -23.232351 1.522107 3.712193 -50.538570 -0.791688 0.000000 0.000000 0.000000 -1.097192 -3.323172 -1.113500 15.860778 13.992256 -0.269234 -14.160095 45.276818 -2.971609 0.000000 0.000000 0.000000 
0.003064 0.949144 0.007923 -0.247317 -0.212794 8.146891 2.586191 -0.295094 -3.071788 0.497758 0.174771 -5.921058 1.010187 5.246749 8.671344 0.000000 0.000000 0.000000 -1.356476 0.523420 -5.232015 -2.076057 0.017101 -3.361115 -1.860827 -7.913431 9.626456 0.000000 0.000000 0.000000 5.900201 0.460688 -7.299295 -2.012371 0.963429 -4.299046 -7.122396 3.714929 1.008620 11.097088 -6.612123 -8.772815 0.000000 0.000000 0.000000 -10.860737 -4.317526 0.069182 -22.669646 -20.631932 0.931560 7.994952 -40.461461 -1.973899 0.000000 0.000000 0.000000 -0.528330 -5.149575 -1.772348 17.795955 11.834677 -0.439710 -12.822316 43.537815 -2.515367 0.000000 0.000000 0.000000 
0.003756 0.948575 0.009009 -0.191673 -0.166709 8.142013 2.452959 -0.261362 -2.595311 0.523439 0.187128 -6.275497 1.068274 5.380948 8.763966 0.000000 0.000000 0.000000 -1.719710 0.513650 -5.122945 -2.111104 0.021625 -3.329648 -1.372175 -6.880370 9.459086 0.000000 0.000000 0.000000 6.097842 0.448210 -7.111765 -1.979588 0.950183 -4.316744 -7.105500 3.674076 1.386187 10.124387 -5.910681 -8.937147 0.000000 0.000000 0.000000 -11.438040 -4.251822 -0.018344 -22.828520 -18.984911 0.680632 9.679883 -34.569451 -2.141666 0.000000 0.000000 0.000000 0.860445 -5.931661 -2.174004 19.695634 10.321913 -0.614244 -13.142204 40.951193 -2.480018 0.000000 0.000000 0.000000 
0.004277 0.948374 0.009478 -0.267535 -0.190028 8.053202 2.568392 -0.242754 -2.315170 0.332802 0.206638 -6.535403 1.233552 5.796571 9.201814 0.000000 0.000000 0.000000 -1.562851 0.504668 -5.023776 -2.319227 0.039684 -3.281238 -0.977653 -6.100323 9.489730 0.000000 0.000000 0.000000 6.096937 0.429555 -6.892710 -2.037893 0.973608 -4.057453 -6.816492 3.440551 1.653356 9.726607 -5.557680 -9.402314 0.000000 0.000000 0.000000 -11.222995 -4.683829 0.255509 -23.955757 -18.061889 0.572058 10.314050 -31.765534 -2.095947 0.000000 0.000000 0.000000 2.549806 -5.623775 -2.218094 21.754412 10.402861 -0.608497 -13.184811 35.897741 -2.218888 0.000000 0.000000 0.000000 
